<svg xmlns="http://www.w3.org/2000/svg" width="8" height="8" viewBox="0 0 8 8" shape-rendering="crispEdges">
  <path fill="#3A1650" fill-opacity="0.55" d="M0 0h1v1h-1zM1 1h1v1h-1zM3 3h1v1h-1zM4 4h1v1h-1zM5 5h1v1h-1zM6 6h1v1h-1z"/>
  <path fill="#241033" fill-opacity="0.35" d="M4 0h1v1h-1zM5 1h1v1h-1zM6 2h1v1h-1zM7 3h1v1h-1zM0 4h1v1h-1zM1 5h1v1h-1zM2 6h1v1h-1zM3 7h1v1h-1z"/>
  <path fill="#B037C4" fill-opacity="0.6" d="M2 2h1v1h-1z"/>
  <path fill="#B037C4" fill-opacity="0.3" d="M7 7h1v1h-1z"/>
</svg>
