<svg xmlns="http://www.w3.org/2000/svg" width="8" height="8" viewBox="0 0 8 8" shape-rendering="crispEdges">
  <path fill="#1F8A96" fill-opacity="0.45" d="M0 0h1v1h-1zM4 0h1v1h-1zM1 1h1v1h-1zM3 1h1v1h-1zM5 1h1v1h-1zM7 1h1v1h-1zM6 2h1v1h-1zM1 3h1v1h-1zM3 3h1v1h-1zM5 3h1v1h-1zM7 3h1v1h-1zM0 4h1v1h-1zM4 4h1v1h-1zM1 5h1v1h-1zM3 5h1v1h-1zM5 5h1v1h-1zM7 5h1v1h-1zM2 6h1v1h-1zM1 7h1v1h-1zM3 7h1v1h-1zM5 7h1v1h-1zM7 7h1v1h-1z"/>
  <path fill="#123B4C" fill-opacity="0.3" d="M2 0h1v1h-1zM6 0h1v1h-1zM0 2h1v1h-1zM4 2h1v1h-1zM2 4h1v1h-1zM6 4h1v1h-1zM0 6h1v1h-1zM4 6h1v1h-1z"/>
  <path fill="#42C5F8" fill-opacity="0.35" d="M2 2h1v1h-1zM6 6h1v1h-1z"/>
</svg>
